<svg width="1955" height="1138" viewBox="0 0 1955 1138" fill="none" xmlns="http://www.w3.org/2000/svg">
<rect width="1955" height="1138" fill="#1A6189"/>
<path d="M773.336 567.92C778.541 569.029 782.723 571.632 785.88 575.728C789.037 579.739 790.616 584.347 790.616 589.552C790.616 597.061 787.971 603.035 782.68 607.472C777.475 611.824 770.179 614 760.792 614H718.936V524.144H759.384C768.515 524.144 775.64 526.235 780.76 530.416C785.965 534.597 788.568 540.272 788.568 547.44C788.568 552.731 787.16 557.125 784.344 560.624C781.613 564.123 777.944 566.555 773.336 567.92ZM740.824 560.496H755.16C758.744 560.496 761.475 559.728 763.352 558.192C765.315 556.571 766.296 554.224 766.296 551.152C766.296 548.08 765.315 545.733 763.352 544.112C761.475 542.491 758.744 541.68 755.16 541.68H740.824V560.496ZM756.952 596.336C760.621 596.336 763.437 595.525 765.4 593.904C767.448 592.197 768.472 589.765 768.472 586.608C768.472 583.451 767.405 580.976 765.272 579.184C763.224 577.392 760.365 576.496 756.696 576.496H740.824V596.336H756.952ZM798.959 578.16C798.959 570.821 800.324 564.379 803.055 558.832C805.871 553.285 809.668 549.019 814.447 546.032C819.226 543.045 824.559 541.552 830.447 541.552C835.482 541.552 839.876 542.576 843.631 544.624C847.471 546.672 850.415 549.36 852.463 552.688V542.576H874.351V614H852.463V603.888C850.33 607.216 847.343 609.904 843.503 611.952C839.748 614 835.354 615.024 830.319 615.024C824.516 615.024 819.226 613.531 814.447 610.544C809.668 607.472 805.871 603.163 803.055 597.616C800.324 591.984 798.959 585.499 798.959 578.16ZM852.463 578.288C852.463 572.827 850.927 568.517 847.855 565.36C844.868 562.203 841.199 560.624 836.847 560.624C832.495 560.624 828.783 562.203 825.711 565.36C822.724 568.432 821.231 572.699 821.231 578.16C821.231 583.621 822.724 587.973 825.711 591.216C828.783 594.373 832.495 595.952 836.847 595.952C841.199 595.952 844.868 594.373 847.855 591.216C850.927 588.059 852.463 583.749 852.463 578.288ZM929.994 595.44V614H918.858C910.922 614 904.735 612.08 900.298 608.24C895.861 604.315 893.642 597.957 893.642 589.168V560.752H884.938V542.576H893.642V525.168H915.53V542.576H929.866V560.752H915.53V589.424C915.53 591.557 916.042 593.093 917.066 594.032C918.09 594.971 919.797 595.44 922.186 595.44H929.994ZM937.834 578.16C937.834 570.821 939.199 564.379 941.93 558.832C944.746 553.285 948.543 549.019 953.322 546.032C958.101 543.045 963.434 541.552 969.322 541.552C974.357 541.552 978.751 542.576 982.506 544.624C986.346 546.672 989.29 549.36 991.338 552.688V542.576H1013.23V614H991.338V603.888C989.205 607.216 986.218 609.904 982.378 611.952C978.623 614 974.229 615.024 969.194 615.024C963.391 615.024 958.101 613.531 953.322 610.544C948.543 607.472 944.746 603.163 941.93 597.616C939.199 591.984 937.834 585.499 937.834 578.16ZM991.338 578.288C991.338 572.827 989.802 568.517 986.73 565.36C983.743 562.203 980.074 560.624 975.722 560.624C971.37 560.624 967.658 562.203 964.586 565.36C961.599 568.432 960.106 572.699 960.106 578.16C960.106 583.621 961.599 587.973 964.586 591.216C967.658 594.373 971.37 595.952 975.722 595.952C980.074 595.952 983.743 594.373 986.73 591.216C989.802 588.059 991.338 583.749 991.338 578.288ZM1056.2 541.552C1061.23 541.552 1065.63 542.576 1069.38 544.624C1073.22 546.672 1076.17 549.36 1078.21 552.688V542.576H1100.1V613.872C1100.1 620.443 1098.78 626.373 1096.13 631.664C1093.57 637.04 1089.61 641.307 1084.23 644.464C1078.94 647.621 1072.33 649.2 1064.39 649.2C1053.81 649.2 1045.23 646.683 1038.66 641.648C1032.09 636.699 1028.34 629.957 1027.4 621.424H1049.03C1049.71 624.155 1051.33 626.288 1053.89 627.824C1056.45 629.445 1059.61 630.256 1063.37 630.256C1067.89 630.256 1071.47 628.933 1074.12 626.288C1076.85 623.728 1078.21 619.589 1078.21 613.872V603.76C1076.08 607.088 1073.14 609.819 1069.38 611.952C1065.63 614 1061.23 615.024 1056.2 615.024C1050.31 615.024 1044.98 613.531 1040.2 610.544C1035.42 607.472 1031.62 603.163 1028.81 597.616C1026.07 591.984 1024.71 585.499 1024.71 578.16C1024.71 570.821 1026.07 564.379 1028.81 558.832C1031.62 553.285 1035.42 549.019 1040.2 546.032C1044.98 543.045 1050.31 541.552 1056.2 541.552ZM1078.21 578.288C1078.21 572.827 1076.68 568.517 1073.61 565.36C1070.62 562.203 1066.95 560.624 1062.6 560.624C1058.25 560.624 1054.53 562.203 1051.46 565.36C1048.47 568.432 1046.98 572.699 1046.98 578.16C1046.98 583.621 1048.47 587.973 1051.46 591.216C1054.53 594.373 1058.25 595.952 1062.6 595.952C1066.95 595.952 1070.62 594.373 1073.61 591.216C1076.68 588.059 1078.21 583.749 1078.21 578.288ZM1148.45 615.024C1141.45 615.024 1135.14 613.531 1129.5 610.544C1123.96 607.557 1119.56 603.291 1116.32 597.744C1113.16 592.197 1111.58 585.712 1111.58 578.288C1111.58 570.949 1113.21 564.507 1116.45 558.96C1119.69 553.328 1124.13 549.019 1129.76 546.032C1135.39 543.045 1141.71 541.552 1148.7 541.552C1155.7 541.552 1162.02 543.045 1167.65 546.032C1173.28 549.019 1177.72 553.328 1180.96 558.96C1184.2 564.507 1185.82 570.949 1185.82 578.288C1185.82 585.627 1184.16 592.112 1180.83 597.744C1177.59 603.291 1173.11 607.557 1167.39 610.544C1161.76 613.531 1155.45 615.024 1148.45 615.024ZM1148.45 596.08C1152.63 596.08 1156.17 594.544 1159.07 591.472C1162.06 588.4 1163.55 584.005 1163.55 578.288C1163.55 572.571 1162.1 568.176 1159.2 565.104C1156.38 562.032 1152.89 560.496 1148.7 560.496C1144.44 560.496 1140.9 562.032 1138.08 565.104C1135.26 568.091 1133.86 572.485 1133.86 578.288C1133.86 584.005 1135.22 588.4 1137.95 591.472C1140.77 594.544 1144.27 596.08 1148.45 596.08ZM1219.32 554.48C1221.88 550.555 1225.08 547.483 1228.92 545.264C1232.76 542.96 1237.03 541.808 1241.72 541.808V564.976H1235.71C1230.25 564.976 1226.15 566.171 1223.42 568.56C1220.69 570.864 1219.32 574.96 1219.32 580.848V614H1197.44V542.576H1219.32V554.48Z" fill="white"/>
</svg>
