<svg width="97" height="78" viewBox="0 0 97 78" fill="none" xmlns="http://www.w3.org/2000/svg">
<path d="M4.32 39.88C3.97333 39.6667 3.65333 39.4 3.36 39.08C3.06667 38.7867 3 38.36 3.16 37.8C3.13333 37.48 3.14667 37.1733 3.2 36.88C3.28 36.5867 3.33333 36.3867 3.36 36.28C3.49333 36.28 3.57333 36.2133 3.6 36.08C3.62667 35.92 3.64 35.7867 3.64 35.68C3.64 35.4667 3.72 35.1067 3.88 34.6C4.04 34.0933 4.2 33.56 4.36 33C4.57333 32.5467 4.77333 32.0667 4.96 31.56C5.17333 31.0533 5.28 30.7467 5.28 30.64C5.28 30.4267 5.33333 30.2133 5.44 30C5.54667 29.76 5.66667 29.5333 5.8 29.32C5.93333 29 6.02667 28.6533 6.08 28.28C6.16 27.88 6.2 27.5733 6.2 27.36C6.36 27.0133 6.53333 26.64 6.72 26.24C6.90667 25.84 7.05333 25.4267 7.16 25C7.32 24.5467 7.56 23.88 7.88 23C8.2 22.0933 8.53333 21.1867 8.88 20.28C9.12 19.7733 9.34667 19.2533 9.56 18.72C9.8 18.16 10.0133 17.6933 10.2 17.32C10.3867 16.92 10.52 16.72 10.6 16.72C10.6 16.72 10.6 16.68 10.6 16.6C10.6 16.4933 10.6 16.3867 10.6 16.28C10.6 16.1467 10.7067 15.8933 10.92 15.52C11.1333 15.12 11.3333 14.7067 11.52 14.28C11.7867 13.88 11.9733 13.5067 12.08 13.16C12.1867 12.7867 12.24 12.6 12.24 12.6C12.24 12.6 12.2933 12.52 12.4 12.36C12.5067 12.1733 12.6133 12.0267 12.72 11.92C13.4133 11.5467 14 11.36 14.48 11.36C14.9867 11.36 15.3333 11.68 15.52 12.32C15.7333 12.9067 15.8267 13.32 15.8 13.56C15.7733 13.7733 15.68 14.04 15.52 14.36C15.3067 14.84 15.0267 15.4533 14.68 16.2C14.3333 16.92 13.9733 17.6933 13.6 18.52C13.2267 19.3467 12.8667 20.1467 12.52 20.92C12.2 21.6667 11.9333 22.3067 11.72 22.84C11.5333 23.3733 11.44 23.7067 11.44 23.84L9.76 27.96C9.65333 28.1467 9.48 28.6267 9.24 29.4C9 30.1467 8.72 31.0533 8.4 32.12C8.08 33.16 7.74667 34.2267 7.4 35.32C7.08 36.3867 6.76 37.36 6.44 38.24C6.28 38.6933 6.13333 39.0667 6 39.36C5.86667 39.68 5.73333 39.92 5.6 40.08C5.46667 40.24 5.30667 40.32 5.12 40.32C5.01333 40.32 4.89333 40.28 4.76 40.2C4.62667 40.12 4.48 40.0133 4.32 39.88ZM18.48 39.8C18.24 39.8267 17.9067 39.7067 17.48 39.44C17.08 39.2 16.64 38.8933 16.16 38.52C15.7067 38.1467 15.2667 37.76 14.84 37.36C14.44 36.96 14.12 36.6133 13.88 36.32C13.4533 35.7067 12.9067 34.88 12.24 33.84C11.6 32.8 11.12 31.7067 10.8 30.56C10.6133 29.7067 10.4133 29.0267 10.2 28.52C10.0133 27.9867 9.92 27.52 9.92 27.12L9.96 24.64L12.88 24.44C13.0133 25.88 13.2267 27.08 13.52 28.04C13.8133 28.9733 14.16 29.8133 14.56 30.56C14.88 31.2533 15.2267 31.9333 15.6 32.6C16 33.2667 16.44 33.8267 16.92 34.28C17.5333 34.9467 18.08 35.44 18.56 35.76C19.04 36.08 19.4 36.24 19.64 36.24C20.1467 36.48 20.52 36.7067 20.76 36.92C21 37.1333 21.16 37.32 21.24 37.48C21.32 37.64 21.3467 37.7867 21.32 37.92C21.3467 38 21.3333 38.1733 21.28 38.44C21.2267 38.7333 21.1467 39.0133 21.04 39.28C20.9333 39.5733 20.7867 39.76 20.6 39.84C20.4133 40.0267 20.1733 40.1333 19.88 40.16C19.5867 40.2133 19.12 40.0933 18.48 39.8ZM9.2 24.52L12.12 22.36C12.2 22.28 12.4267 22.0667 12.8 21.72C13.2 21.3467 13.96 20.7333 15.08 19.88L20.36 15.6C21.0267 15.2533 21.64 14.8667 22.2 14.44C22.76 14.0133 23.2267 13.68 23.6 13.44C24.0533 13.12 24.52 12.7867 25 12.44C25.48 12.0933 25.7733 11.9333 25.88 11.96C26.0933 11.8533 26.3467 11.96 26.64 12.28C26.9333 12.5733 27.1733 12.9333 27.36 13.36C27.5733 13.76 27.6667 14.0667 27.64 14.28C27.6933 14.5467 27.6533 14.7733 27.52 14.96C27.3867 15.1467 27.04 15.4 26.48 15.72C25.8133 16.0133 25.28 16.2933 24.88 16.56C24.5067 16.8267 24.2933 17.0267 24.24 17.16C24.24 17.16 23.96 17.3733 23.4 17.8C22.84 18.2267 22.1733 18.7067 21.4 19.24C20.3333 19.96 19.4533 20.6 18.76 21.16C18.0933 21.6933 17.6533 22.12 17.44 22.44C17.3333 22.44 17.2267 22.48 17.12 22.56C17.04 22.64 16.9467 22.6667 16.84 22.64C16.84 22.64 16.7333 22.72 16.52 22.88C16.3067 23.0133 16.1467 23.16 16.04 23.32C15.9867 23.4533 15.8667 23.6267 15.68 23.84C15.52 24.0533 15.32 24.1467 15.08 24.12C14.8933 24.2267 14.56 24.4533 14.08 24.8C13.6 25.12 13.0933 25.48 12.56 25.88C12.0533 26.28 11.6133 26.64 11.24 26.96C10.8667 27.28 10.6667 27.4667 10.64 27.52L9.2 24.52ZM23.6709 37.16C23.5643 36.9467 23.3243 36.7333 22.9509 36.52C22.6043 36.3067 22.4309 36.1467 22.4309 36.04C22.4309 35.9333 22.3643 35.7733 22.2309 35.56C22.1243 35.32 22.0176 35.1467 21.9109 35.04C21.7776 34.88 21.8176 34.4933 22.0309 33.88C22.2443 33.24 22.5643 32.4667 22.9909 31.56C23.4176 30.6533 23.8843 29.7333 24.3909 28.8C24.6043 28.5867 24.8176 28.3067 25.0309 27.96C25.2443 27.6133 25.4043 27.3867 25.5109 27.28C25.5109 27.1733 25.5509 27.08 25.6309 27C25.7109 26.8933 25.8043 26.84 25.9109 26.84L26.2309 26.2C26.2843 26.0933 26.4443 25.88 26.7109 25.56C27.0043 25.24 27.3509 24.8933 27.7509 24.52C28.1509 24.12 28.5509 23.7467 28.9509 23.4C29.3776 23.0533 29.7243 22.8 29.9909 22.64C30.5509 22.2667 31.1243 22.0933 31.7109 22.12C32.3243 22.1467 32.8443 22.3333 33.2709 22.68C33.3509 22.76 33.5243 22.92 33.7909 23.16C34.0843 23.4 34.4043 23.6667 34.7509 23.96C35.1243 24.2533 35.4443 24.52 35.7109 24.76L37.1909 26.08L36.5109 28.08C36.1643 29.1467 36.0709 30.08 36.2309 30.88C36.3909 31.68 36.6443 32.3733 36.9909 32.96C37.1243 33.2533 37.2976 33.48 37.5109 33.64C37.7509 33.8 38.0576 33.9067 38.4309 33.96C38.6443 33.9867 38.8443 34.0667 39.0309 34.2C39.2176 34.3333 39.3109 34.5467 39.3109 34.84C39.3109 35.48 39.1909 35.9467 38.9509 36.24C38.7376 36.5067 38.4976 36.6667 38.2309 36.72C37.3509 36.8267 36.5109 36.7333 35.7109 36.44C34.9109 36.1467 34.1909 35.3867 33.5509 34.16C33.4443 34 33.2976 33.7067 33.1109 33.28C32.9509 32.8267 32.8576 32.5333 32.8309 32.4C32.7243 32.5333 32.5776 32.7067 32.3909 32.92C32.2309 33.1067 32.0709 33.28 31.9109 33.44C30.0176 35.36 28.3909 36.6133 27.0309 37.2C25.6976 37.76 24.5776 37.7467 23.6709 37.16ZM25.8709 33.84C26.0576 33.8667 26.3509 33.7733 26.7509 33.56C27.1509 33.32 27.6843 32.9333 28.3509 32.4C29.2576 31.6267 30.0043 30.9867 30.5909 30.48C31.1776 29.9733 31.7509 29.32 32.3109 28.52L33.1909 27.08C32.9243 26.4667 32.6843 26.0667 32.4709 25.88C32.2576 25.6933 32.0443 25.6 31.8309 25.6C31.4843 25.6 31.0709 25.8267 30.5909 26.28C30.1109 26.7067 29.5643 27.3467 28.9509 28.2C28.3643 29.0267 27.6976 30.0667 26.9509 31.32C26.6043 31.9067 26.3376 32.48 26.1509 33.04C25.9643 33.5733 25.8709 33.84 25.8709 33.84ZM54.2825 37.04C53.6958 36.9867 53.2025 36.8667 52.8025 36.68C52.4292 36.4667 52.1225 36.0533 51.8825 35.44C51.7758 35.0133 51.7225 34.5733 51.7225 34.12C51.7492 33.64 51.7892 33.1867 51.8425 32.76C51.8958 32.3067 51.9225 31.92 51.9225 31.6C51.9225 31.5467 51.9225 31.44 51.9225 31.28C51.9225 31.12 51.9225 30.9733 51.9225 30.84C51.8692 30.44 51.7625 30.2 51.6025 30.12C51.4692 30.0133 51.2292 30.0267 50.8825 30.16C50.3225 30.4267 49.7092 30.7867 49.0425 31.24C48.4025 31.6667 47.7225 32.1733 47.0025 32.76C46.3092 33.32 45.5892 33.92 44.8425 34.56C44.2558 35.2 43.8158 35.72 43.5225 36.12C43.2558 36.52 42.9758 36.72 42.6825 36.72C42.4692 36.8267 42.2425 36.8 42.0025 36.64C41.7625 36.48 41.5092 36.2933 41.2425 36.08C41.0558 35.8667 40.8292 35.6 40.5625 35.28C40.3225 34.9333 40.1758 34.7067 40.1225 34.6C40.1225 34.1733 40.1492 33.7867 40.2025 33.44C40.2825 33.0933 40.3892 32.7333 40.5225 32.36C40.6825 31.9867 40.8692 31.56 41.0825 31.08C41.1892 30.8933 41.2825 30.7067 41.3625 30.52C41.4692 30.3067 41.5892 30.08 41.7225 29.84C41.8292 29.4667 41.9758 29.04 42.1625 28.56C42.3758 28.08 42.5758 27.6267 42.7625 27.2C43.0558 26.5067 43.2825 25.9067 43.4425 25.4C43.6025 24.8933 43.7358 24.3467 43.8425 23.76C43.8158 23.7067 43.8292 23.6267 43.8825 23.52C43.9358 23.4133 44.0158 23.3467 44.1225 23.32H44.1625H44.2025C44.3892 23.1867 44.7358 23.1733 45.2425 23.28C45.7758 23.36 46.1758 23.5067 46.4425 23.72C47.0025 24.2 47.2692 24.8267 47.2425 25.6C47.2158 26.3733 46.8158 27.3867 46.0425 28.64C45.8558 29.0667 45.6558 29.4667 45.4425 29.84C45.2558 30.1867 45.1625 30.4267 45.1625 30.56C45.1625 30.56 45.2692 30.48 45.4825 30.32C45.6958 30.16 45.9492 29.9733 46.2425 29.76C46.5358 29.52 46.7892 29.3333 47.0025 29.2C47.1358 29.0667 47.4292 28.8267 47.8825 28.48C48.3358 28.1067 48.8292 27.72 49.3625 27.32C49.8958 26.92 50.3225 26.6133 50.6425 26.4C50.9358 26.1867 51.3092 25.9733 51.7625 25.76C52.2158 25.52 52.4958 25.4 52.6025 25.4C52.8692 25.4 53.1892 25.4933 53.5625 25.68C53.9625 25.8667 54.3225 26.0933 54.6425 26.36C54.9892 26.6 55.1892 26.8267 55.2425 27.04C55.2425 27.1467 55.2292 27.2933 55.2025 27.48C55.1758 27.64 55.1625 27.7867 55.1625 27.92C55.1358 28.3467 55.1225 28.8667 55.1225 29.48C55.1492 30.0667 55.1625 30.6667 55.1625 31.28C55.1625 31.8667 55.1092 32.4 55.0025 32.88C55.0025 32.88 55.0158 32.9067 55.0425 32.96C55.0692 32.9867 55.0958 33.04 55.1225 33.12C55.0958 33.1467 55.0825 33.2 55.0825 33.28C55.1092 33.3333 55.1225 33.36 55.1225 33.36C55.1758 33.5467 55.2292 33.7333 55.2825 33.92C55.3625 34.1067 55.4558 34.32 55.5625 34.56C55.6692 34.7733 55.7892 35.0533 55.9225 35.4C55.8958 35.7467 55.6958 36.0933 55.3225 36.44C54.9758 36.76 54.6292 36.96 54.2825 37.04ZM64.1219 38.24C63.7485 38.1333 63.3752 37.9467 63.0019 37.68C62.6285 37.4133 62.2419 37.1067 61.8419 36.76C61.5219 36.3333 61.2952 35.9467 61.1619 35.6C61.0285 35.2267 60.9485 34.8 60.9219 34.32C60.9219 33.8133 60.9219 33.1733 60.9219 32.4C60.9219 32.08 60.9752 31.6267 61.0819 31.04C61.2152 30.4533 61.3485 29.84 61.4819 29.2C61.6419 28.56 61.7885 28 61.9219 27.52C62.0552 27.0133 62.1352 26.68 62.1619 26.52C62.2419 26.1733 62.1085 25.9733 61.7619 25.92C61.4152 25.8667 61.0285 25.8533 60.6019 25.88C60.2019 25.88 59.9352 25.84 59.8019 25.76C59.6952 25.7333 59.6419 25.6 59.6419 25.36C59.6419 25.0933 59.6419 24.96 59.6419 24.96C59.6419 24.8533 59.5885 24.7867 59.4819 24.76C59.3752 24.7067 59.2819 24.6133 59.2019 24.48C59.1485 24.3733 59.2152 24.1733 59.4019 23.88C59.5885 23.5867 59.8285 23.4133 60.1219 23.36C60.3619 23.3067 60.7219 23.2667 61.2019 23.24C61.6819 23.1867 62.1619 23.0933 62.6419 22.96C63.1485 22.8 63.5352 22.56 63.8019 22.24C64.0419 21.6533 64.3085 21.0267 64.6019 20.36C64.8952 19.6667 65.1752 19.0667 65.4419 18.56C65.7085 18.0267 65.8952 17.6933 66.0019 17.56C66.4552 17.32 66.9219 17.2267 67.4019 17.28C67.8819 17.3067 68.2552 17.5333 68.5219 17.96C68.6552 18.1467 68.7619 18.28 68.8419 18.36C68.9485 18.44 68.9885 18.56 68.9619 18.72C68.9619 18.88 68.8552 19.1733 68.6419 19.6C68.4552 20 68.1352 20.6267 67.6819 21.48C67.5485 21.7467 67.4285 21.9867 67.3219 22.2C67.2152 22.3867 67.1619 22.48 67.1619 22.48C67.2685 22.5067 67.4285 22.52 67.6419 22.52C67.8552 22.52 68.1219 22.5067 68.4419 22.48C68.7352 22.4267 69.0552 22.3867 69.4019 22.36C69.7485 22.3067 70.0552 22.3067 70.3219 22.36C70.9352 22.36 71.3885 22.5333 71.6819 22.88C71.9752 23.2267 72.1352 23.6667 72.1619 24.2C72.2152 24.4933 72.1085 24.7467 71.8419 24.96C71.5752 25.1733 71.0819 25.28 70.3619 25.28C70.1219 25.28 69.7752 25.2933 69.3219 25.32C68.8685 25.3467 68.4019 25.3733 67.9219 25.4C67.4419 25.4267 67.0285 25.4667 66.6819 25.52C66.3619 25.5467 66.2019 25.5867 66.2019 25.64C66.1219 25.6933 65.9885 25.9067 65.8019 26.28C65.6419 26.6267 65.4685 27.0533 65.2819 27.56C65.1219 28.0667 64.9752 28.5467 64.8419 29C64.6552 29.9067 64.5219 30.7867 64.4419 31.64C64.3619 32.4933 64.3485 33.24 64.4019 33.88C64.4819 34.4933 64.6419 34.9333 64.8819 35.2C65.1219 35.44 65.4819 35.44 65.9619 35.2C66.4685 34.9333 66.9352 34.6267 67.3619 34.28C67.8419 33.88 68.2552 33.76 68.6019 33.92C68.9485 34.0533 69.1619 34.3467 69.2419 34.8C69.3485 35.2267 69.2285 35.6933 68.8819 36.2C68.5619 36.7067 68.1085 37.1333 67.5219 37.48C66.9352 37.8267 66.3352 38.0667 65.7219 38.2C65.1085 38.36 64.5752 38.3733 64.1219 38.24ZM75.0041 37.96C74.3641 37.96 73.8041 37.6267 73.3241 36.96C72.8707 36.2667 72.5907 35.44 72.4841 34.48C72.5107 34.2667 72.5374 33.96 72.5641 33.56C72.6174 33.16 72.6707 32.7467 72.7241 32.32C72.8307 31.8133 72.9774 31.16 73.1641 30.36C73.3507 29.56 73.5507 28.76 73.7641 27.96C73.9774 27.1333 74.1641 26.4267 74.3241 25.84C74.4841 25.2267 74.5774 24.8667 74.6041 24.76C74.7641 24.3867 75.1241 24.2933 75.6841 24.48C76.2441 24.6667 76.7241 25.0667 77.1241 25.68C77.2841 25.8933 77.3774 26.1467 77.4041 26.44C77.4574 26.7333 77.4174 27.16 77.2841 27.72C77.1774 28.28 76.9641 29.1067 76.6441 30.2C76.3507 31.2667 76.1241 32.1333 75.9641 32.8C75.8307 33.44 75.7774 34.12 75.8041 34.84C75.6974 36.0667 75.5907 36.9067 75.4841 37.36C75.3774 37.7867 75.2174 37.9867 75.0041 37.96ZM78.6841 21.36C78.5774 21.44 78.4707 21.48 78.3641 21.48C78.2841 21.4533 78.1374 21.3733 77.9241 21.24C77.7374 21.2133 77.4974 21.0933 77.2041 20.88C76.9374 20.64 76.6974 20.4 76.4841 20.16C76.2974 19.92 76.2041 19.7733 76.2041 19.72C76.1774 19.4533 76.1907 19.0267 76.2441 18.44C76.3241 17.8533 76.4707 17.3067 76.6841 16.8C76.9241 16.2667 77.2441 15.9867 77.6441 15.96C77.7507 15.96 77.9774 16.0133 78.3241 16.12C78.6974 16.2267 79.0841 16.36 79.4841 16.52C79.6974 16.92 79.8974 17.44 80.0841 18.08C80.2707 18.72 80.2841 19.3467 80.1241 19.96C79.9907 20.5467 79.5107 21.0133 78.6841 21.36ZM82.0956 36.64C81.989 36.64 81.7356 36.5467 81.3356 36.36C80.9356 36.1467 80.6823 35.9867 80.5756 35.88C80.389 35.6667 80.269 35.44 80.2156 35.2C80.1623 34.9333 80.1356 34.4267 80.1356 33.68C80.1356 32.8267 80.309 31.8667 80.6556 30.8C81.0023 29.7067 81.589 28.2533 82.4156 26.44L84.0556 23.12C84.189 22.9333 84.309 22.7733 84.4156 22.64C84.5223 22.48 84.6423 22.3333 84.7756 22.2C84.829 22.2 84.8956 22.2 84.9756 22.2C85.0823 22.2 85.1623 22.2133 85.2156 22.24C85.4556 22.2667 85.829 22.4133 86.3356 22.68C86.869 22.9467 87.189 23.3467 87.2956 23.88C87.2956 24.2267 87.2423 24.64 87.1356 25.12C87.029 25.5733 86.709 26.1733 86.1756 26.92C85.9623 27.1867 85.749 27.5733 85.5356 28.08C85.349 28.5867 85.1756 29.0667 85.0156 29.52C84.989 29.5733 84.909 29.7067 84.7756 29.92C84.669 30.1067 84.5623 30.3067 84.4556 30.52C84.349 30.7067 84.2956 30.8267 84.2956 30.88L84.1356 31.24L85.8556 29.56C87.0556 28.36 88.069 27.5067 88.8956 27C89.7223 26.4933 90.4156 26.28 90.9756 26.36C91.5623 26.44 92.029 26.7733 92.3756 27.36C92.5623 27.6267 92.6956 27.92 92.7756 28.24C92.8556 28.5333 92.909 28.88 92.9356 29.28C92.9623 29.68 92.949 30.1867 92.8956 30.8V33.08C93.4023 32.9467 93.789 32.84 94.0556 32.76C94.3223 32.6533 94.589 32.56 94.8556 32.48C95.069 32.4267 95.2823 32.3733 95.4956 32.32C95.7356 32.2667 96.029 32.2267 96.3756 32.2C96.349 32.5467 96.2023 32.9733 95.9356 33.48C95.669 33.9867 95.3356 34.4933 94.9356 35C94.5623 35.5067 94.149 35.9333 93.6956 36.28C93.269 36.6267 92.869 36.8 92.4956 36.8C92.149 36.8 91.749 36.6933 91.2956 36.48C90.8423 36.24 90.4556 35.7867 90.1356 35.12C90.029 34.7733 89.9223 34.3733 89.8156 33.92C89.709 33.4667 89.6556 32.9867 89.6556 32.48V30.72C89.6556 30.56 89.6423 30.4533 89.6156 30.4C89.6156 30.32 89.6023 30.28 89.5756 30.28C89.469 30.28 89.1223 30.56 88.5356 31.12C87.9756 31.68 87.4023 32.2667 86.8156 32.88C85.589 34.16 84.5623 35.1067 83.7356 35.72C82.9356 36.3333 82.389 36.64 82.0956 36.64Z" fill="#D1A254"/>
<path d="M9.57663 68.2508C8.45488 67.8945 7.57428 67.2988 6.93482 66.4635C6.31822 65.6032 5.94918 64.3831 5.8277 62.803C5.72908 61.1978 5.88556 59.1364 6.29713 56.6185C6.42595 55.7716 6.62113 54.8015 6.88266 53.7082C7.14419 52.6149 7.45256 51.4954 7.80776 50.3497C8.18581 49.1788 8.57809 48.0554 8.98458 46.9794C9.41393 45.8783 9.83742 44.9096 10.255 44.0733C10.7608 43.0647 11.1519 42.4339 11.4285 42.1808C11.7279 41.9026 11.9986 41.7819 12.2405 41.8187C12.7016 41.9174 13.0358 42.1301 13.2432 42.4568C13.4735 42.7585 13.5616 43.1028 13.5075 43.4897C13.4762 43.8515 13.263 44.1738 12.8676 44.4564C12.6184 44.7803 12.2975 45.3719 11.905 46.231C11.5353 47.0651 11.1525 47.8757 10.7566 48.663C10.3418 50.0757 9.9796 51.3299 9.67012 52.4254C9.35953 53.497 9.10609 54.5059 8.90979 55.452C8.7135 56.3981 8.54341 57.3911 8.39952 58.4309C8.23055 59.4478 8.10116 60.2827 8.01137 60.9356C7.94556 61.5874 7.8987 62.1301 7.8708 62.5639C7.86577 62.9726 7.87049 63.3327 7.88498 63.6444C7.89946 63.9561 7.9145 64.2797 7.9301 64.6154C8.13637 64.9181 8.30502 65.1866 8.43603 65.4207C8.56704 65.6549 8.72956 65.7915 8.92358 65.8305C9.34005 66.0034 9.79779 66.0302 10.2968 65.9109C10.8198 65.7905 11.3263 65.5747 11.8164 65.2637C11.9251 65.0183 12.0731 64.8433 12.2605 64.7385C12.4478 64.6337 12.5415 64.5813 12.5415 64.5813C12.595 64.6989 12.6446 64.7326 12.6903 64.6825C12.7589 64.6072 12.803 64.5211 12.8225 64.424C12.7941 64.3293 12.8141 64.2442 12.8827 64.169C12.9502 64.0697 13.0296 63.9699 13.1211 63.8696C13.3095 63.7888 13.5741 63.5362 13.9148 63.1119C14.2783 62.6626 14.6396 62.1653 14.9987 61.62C15.3817 61.0736 15.6951 60.5786 15.9387 60.1348C16.2064 59.6899 16.338 59.4195 16.3335 59.3236C16.3279 59.2037 16.3709 59.0936 16.4623 58.9932C16.5538 58.8929 16.6561 58.768 16.7693 58.6186C16.8836 58.4931 17.1055 58.0984 17.435 57.4344C17.7874 56.7453 18.1588 55.9472 18.5491 55.0401C18.9634 54.1319 19.333 53.2978 19.6581 52.5379C19.7178 52.2709 19.8301 51.8452 19.9952 51.2609C20.1591 50.6526 20.3312 49.9599 20.5113 49.1827C20.7154 48.4044 20.9075 47.6266 21.0876 46.8494C21.2666 46.0483 21.4261 45.3441 21.566 44.737C21.7289 44.1047 21.8276 43.6436 21.8622 43.3537C21.8956 43.0398 21.9558 42.7848 22.0428 42.5885C22.1287 42.3683 22.1814 42.2097 22.2009 42.1127C22.3186 42.0591 22.463 42.0644 22.6341 42.1286C22.8053 42.1927 22.977 42.2688 23.1493 42.3569C23.3455 42.4439 23.5172 42.52 23.6644 42.5852C23.8172 42.7703 23.8883 43.0073 23.8777 43.2961C23.867 43.5849 23.8038 44.0323 23.6878 44.6384C23.5946 45.2193 23.4538 46.0668 23.2653 47.1807C22.8532 49.17 22.326 51.0084 21.6836 52.6961C21.0653 54.3826 20.3914 56.1678 19.6621 58.0517C19.6621 58.0517 19.6626 58.0637 19.6637 58.0876C19.6637 58.0876 19.6665 58.1476 19.6721 58.2675C19.3922 58.4486 19.1761 58.711 19.0239 59.0544C18.9141 59.2757 18.8151 59.4725 18.727 59.6448C18.6618 59.792 18.5709 59.9043 18.4544 59.9818C18.3925 60.2009 18.3294 60.3961 18.2653 60.5672C18.2012 60.7384 18.1691 60.824 18.1691 60.824C18.1507 60.945 18.0718 61.0567 17.9325 61.1593C17.7931 61.2619 17.6537 61.3645 17.5143 61.4671C17.3966 61.5206 17.3292 61.6198 17.3119 61.7648C17.2946 61.9097 17.2522 62.0318 17.1848 62.1311C16.6941 62.9467 16.1309 63.7537 15.4953 64.5521C14.8597 65.3505 14.1951 66.0421 13.5015 66.6269C12.833 67.2346 12.1806 67.6733 11.5445 67.9432C11.1207 68.131 10.7656 68.2436 10.479 68.281C10.2164 68.3172 9.91561 68.3072 9.57663 68.2508ZM22.5186 68.0098C22.2666 67.7572 22.1002 67.5367 22.0193 67.3483C21.9396 67.1838 21.9176 66.9686 21.9533 66.7027C22.0141 66.4596 22.0938 66.1075 22.1925 65.6464C22.3487 64.8703 22.5229 64.2255 22.7153 63.7121C22.9305 63.1735 23.1332 62.6235 23.3234 62.0621C23.5364 61.4755 23.7062 60.7349 23.8328 59.84C24.1751 58.9351 24.4718 58.0805 24.7227 57.2759C24.9976 56.4703 25.2073 55.8119 25.3517 55.3006C25.4961 54.7894 25.5683 54.5337 25.5683 54.5337C25.5878 54.4367 25.684 54.18 25.8569 53.7635C26.0297 53.347 26.2466 52.8444 26.5076 52.2557C26.7914 51.6418 27.0512 51.0291 27.2871 50.4175C27.6412 49.2478 27.9192 48.2498 28.121 47.4236C28.3457 46.5722 28.5744 45.8048 28.8069 45.1212C29.0394 44.4377 29.3564 43.7623 29.7578 43.0949C30.0221 42.5781 30.3427 42.2388 30.7196 42.0772C31.0965 41.9155 31.4567 41.9108 31.8001 42.063C32.1664 42.1901 32.4327 42.4901 32.5988 42.9629C32.7298 43.1971 32.8391 43.4803 32.9266 43.8126C33.0381 44.1438 33.1448 44.6314 33.2468 45.2753C33.3477 45.8953 33.4369 46.7801 33.5143 47.9298C33.6258 49.2941 33.7007 50.648 33.7391 51.9917C33.7764 53.3114 33.8332 54.5341 33.9096 55.6597C34.0099 56.7843 34.1863 57.7371 34.4388 58.5183C34.5308 58.9464 34.6512 59.4694 34.8001 60.0872C34.9718 60.6798 35.1434 61.2725 35.3151 61.8652C35.5108 62.4567 35.69 62.953 35.8528 63.3538C36.0396 63.7536 36.1809 63.9512 36.2768 63.9468C36.3967 63.9412 36.5453 63.7781 36.7226 63.4576C36.9239 63.1359 37.1614 62.5602 37.4352 61.7306C37.7329 60.8999 38.075 59.7308 38.4615 58.2232C38.8468 56.6917 39.2726 54.7378 39.7388 52.3616C39.8397 51.9485 39.9649 51.2819 40.1143 50.362C40.2878 49.441 40.4007 48.5107 40.4532 47.5713C40.5931 46.9641 40.7303 46.297 40.8647 45.57C40.9991 44.843 41.1134 44.201 41.2077 43.644C41.3259 43.0859 41.3833 42.7709 41.38 42.699C41.3722 42.5312 41.3655 42.3873 41.3599 42.2675C41.3783 42.1465 41.3728 42.0266 41.3432 41.9079C41.4631 41.9023 41.5637 41.7414 41.6452 41.4253C41.7255 41.0852 41.76 40.7953 41.7489 40.5556C41.73 40.148 41.7629 39.8221 41.8476 39.5779C41.9552 39.3086 42.0662 39.1113 42.1805 38.9858C42.2435 38.7907 42.4194 38.6984 42.7082 38.709C42.9959 38.6957 43.2869 38.7542 43.5813 38.8847C43.8757 39.0152 44.0644 39.1986 44.1475 39.435C44.2077 39.6965 44.1636 40.2992 44.0153 41.2431C43.8898 42.1619 43.6834 43.4088 43.3962 44.9839C43.4085 45.2476 43.3566 45.6825 43.2406 46.2885C43.1246 46.8945 42.9983 47.5371 42.8617 48.2162C42.749 48.8941 42.6679 49.4745 42.6183 49.9573C42.5513 50.5851 42.4707 51.1775 42.3765 51.7345C42.2811 52.2675 42.173 52.5248 42.052 52.5064C41.5545 55.2444 41.0028 57.5886 40.3966 59.5388C39.8134 61.4639 39.2859 63.0381 38.8141 64.2613C38.3 65.6067 37.7015 66.4273 37.0185 66.7234C36.3606 67.0422 35.6252 66.728 34.8124 65.7807C34.3279 65.1786 33.9399 64.584 33.6483 63.9969C33.3556 63.3858 33.1064 62.6766 32.9007 61.8693C32.6939 61.038 32.4422 60.0166 32.1457 58.805C31.7404 57.8388 31.4904 56.8533 31.3956 55.8486C31.3249 54.8428 31.3129 53.8103 31.3598 52.751C31.4056 51.6677 31.4257 50.5495 31.4202 49.3965C31.3427 48.2469 31.2591 47.482 31.1694 47.1017C31.0796 46.7215 30.9369 46.7521 30.7412 47.1937C30.5683 47.6102 30.2837 48.4643 29.8872 49.7561C29.7405 50.2194 29.5384 50.7814 29.2808 51.4421C29.0472 52.1016 28.8135 52.7612 28.5799 53.4207C28.3451 54.0563 28.143 54.6183 27.9735 55.1067C27.8029 55.5711 27.6964 55.8644 27.654 55.9865C27.5235 56.2809 27.3735 56.6722 27.204 57.1606C27.0334 57.6251 26.9004 58.1238 26.805 58.6568C26.0467 60.9504 25.4829 62.7786 25.1138 64.1412C24.7686 65.5027 24.5124 66.4516 24.3451 66.9879C24.1366 67.6704 23.9054 68.1256 23.6518 68.3536C23.3992 68.6056 23.0215 68.491 22.5186 68.0098ZM45.8902 65.5903C45.7704 65.5959 45.6237 65.5426 45.4504 65.4306C45.2781 65.3425 45.1161 65.2178 44.9645 65.0567C44.8368 64.8945 44.7685 64.7174 44.7596 64.5256C44.7596 64.5256 44.7443 64.4543 44.7136 64.3116C44.7058 64.1437 44.6501 63.9781 44.5464 63.8148C44.5375 63.623 44.5274 63.4072 44.5163 63.1675C44.528 62.9026 44.5757 62.6361 44.6593 62.368C44.6471 62.1043 44.6697 61.8149 44.7271 61.4999C44.7834 61.1609 44.8557 60.9053 44.9437 60.733C44.9315 60.4693 44.9758 60.1309 45.0768 59.7177C45.2006 59.2795 45.302 58.8784 45.3812 58.5143C45.6082 57.7109 45.7732 57.1266 45.8764 56.7614C46.0035 56.3951 46.0872 56.127 46.1273 55.9569C46.1664 55.7629 46.1814 55.57 46.1725 55.3782C46.2355 55.1831 46.3272 54.8304 46.4477 54.3203C46.5681 53.8101 46.688 53.288 46.8074 52.7539C46.9496 52.1947 47.0391 51.7941 47.0759 51.5521C47.1673 51.4518 47.2114 51.3656 47.208 51.2937C47.2275 51.1967 47.2351 51.1003 47.2306 51.0044C47.2306 51.0044 47.3017 50.7248 47.4439 50.1656C47.5861 49.6064 47.7723 48.961 48.0026 48.2295C48.3751 46.9389 48.6199 46.0025 48.737 45.4204C48.8781 44.8372 48.9311 44.4263 48.896 44.1877C48.8848 43.948 48.8138 43.711 48.6828 43.4768C48.5005 43.173 48.4893 42.9332 48.6493 42.7576C48.7408 42.6573 48.8197 42.5455 48.886 42.4223C48.9513 42.2751 48.9839 42.2015 48.9839 42.2015C48.9816 42.1535 49.1336 42.0624 49.4397 41.928C49.7458 41.7937 50.1232 41.644 50.5721 41.479C51.0198 41.29 51.468 41.113 51.9169 40.948C52.3896 40.7819 52.7797 40.6436 53.0869 40.5332C53.1588 40.5299 53.2667 40.5249 53.4105 40.5182C53.5783 40.5104 53.7581 40.502 53.9499 40.4931C54.1657 40.4831 54.3695 40.4736 54.5613 40.4647C55.1891 40.5316 55.8327 40.6819 56.4923 40.9156C57.1758 41.1481 57.7565 41.4935 58.2343 41.9518C58.5342 42.2022 58.8004 42.5021 59.0329 42.8517C59.2893 43.2002 59.6163 43.7736 60.0138 44.572C60.0183 44.6679 60.0517 44.8706 60.1141 45.18C60.1994 45.4644 60.2488 45.7504 60.2621 46.0381C60.2956 46.7573 60.1508 47.5209 59.828 48.3287C59.5051 49.1366 59.027 49.9637 58.3936 50.81C57.7591 51.6323 56.9808 52.4613 56.0586 53.297C55.0895 54.159 54.0723 54.7588 53.0068 55.0966C51.9413 55.4345 50.9852 55.539 50.1383 55.4101C49.9671 55.346 49.8046 55.2094 49.6507 55.0003C49.5208 54.7901 49.4269 54.5783 49.3689 54.3647C49.3109 54.1512 49.3162 54.0068 49.3848 53.9315C49.5744 53.8747 49.8615 53.8493 50.2462 53.8555C50.6298 53.8376 51.2339 53.6534 52.0585 53.3027C52.3178 53.1946 52.5885 53.0739 52.8706 52.9406C53.1516 52.7834 53.3738 52.653 53.5371 52.5493C54.0021 52.2153 54.534 51.7702 55.1329 51.2138C55.7317 50.6574 56.2753 49.9474 56.7637 49.0838C56.9639 48.7381 57.1613 48.3325 57.3559 47.867C57.5494 47.3775 57.7069 46.8896 57.8285 46.4035C57.974 45.9162 58.0395 45.5167 58.025 45.205C58.1879 44.5728 58.0441 44.0629 57.5936 43.6754C57.166 43.2628 56.4944 43.0297 55.5789 42.9762C55.2879 42.9176 54.8455 42.9622 54.2517 43.1099C53.6568 43.2337 53.0876 43.3923 52.544 43.5857C52.0004 43.7792 51.6354 43.9403 51.4492 44.0691C51.3533 44.0735 51.2967 44.1482 51.2794 44.2932C51.2622 44.4381 51.21 44.6087 51.123 44.805C51.1308 44.9728 51.0756 45.3358 50.9574 45.8939C50.8381 46.428 50.6931 46.9272 50.5225 47.3917C50.3792 47.9269 50.2027 48.5237 49.993 49.1822C49.7822 49.8166 49.6372 50.3159 49.5581 50.68C49.48 51.068 49.3774 51.4452 49.2503 51.8115C49.1471 52.1767 49.0955 52.3593 49.0955 52.3593C49.1 52.4552 49.0375 52.6623 48.9082 52.9806C48.8028 53.2979 48.7105 53.6385 48.6313 54.0026C48.5566 54.4625 48.4487 54.9841 48.3076 55.5673C48.1905 56.1494 48.0466 56.6726 47.876 57.137C47.6535 58.0363 47.467 58.9339 47.3164 59.8299C47.1647 60.7019 47.1789 61.2658 47.359 61.5217C47.6227 61.5095 47.7286 61.7208 47.6767 62.1557C47.6238 62.5666 47.4342 63.14 47.108 63.8759C46.8961 64.4864 46.7352 64.9023 46.6254 65.1237C46.5166 65.369 46.4149 65.5059 46.3201 65.5343C46.2253 65.5627 46.082 65.5814 45.8902 65.5903ZM73.1902 66.2678C73.0943 66.2722 72.9842 66.2293 72.8598 66.139C72.7366 66.0726 72.6118 65.9703 72.4852 65.832C72.3096 65.672 72.1802 65.4738 72.0972 65.2374C72.0381 64.9999 72.0035 64.7733 71.9935 64.5575C71.9812 64.2938 71.9657 63.9581 71.9467 63.5506C71.9289 63.167 71.8854 62.7486 71.8163 62.2953C71.784 61.6 71.7386 60.8814 71.6801 60.1393C71.6216 59.3972 71.6352 58.916 71.7211 58.6958C71.6336 58.3635 71.6049 58.0045 71.635 57.6187C71.688 57.2078 71.7095 56.8944 71.6995 56.6786L71.5105 55.7144L69.5326 55.8063C69.0805 55.8994 68.3983 55.9551 67.4862 55.9735C66.5969 55.9667 65.5273 55.9564 64.2773 55.9424L63.8449 56.7193C63.7774 56.8185 63.6213 57.0781 63.3765 57.4979C63.1557 57.9166 62.9611 58.3821 62.7927 58.8945C62.6873 59.2117 62.5596 59.566 62.4096 59.9574C62.2585 60.3248 62.096 60.7048 61.922 61.0973C61.7709 61.4647 61.5947 61.8092 61.3934 62.1309C61.0444 62.892 60.7687 63.4213 60.5663 63.719C60.3867 63.9917 60.237 64.1308 60.1171 64.1363C59.9014 64.1464 59.709 64.1433 59.5401 64.1271C59.3951 64.1098 59.1989 64.0228 58.9514 63.8662C58.4618 63.6727 58.2305 63.3471 58.2573 62.8893C58.308 62.4305 58.557 61.8423 59.0042 61.1248C59.1162 60.9514 59.2163 60.7785 59.3044 60.6063C59.3925 60.434 59.4366 60.3478 59.4366 60.3478C59.4343 60.2999 59.5082 60.0802 59.6582 59.6888C59.8311 59.2724 60.0262 58.8188 60.2437 58.3282C60.4851 57.8365 60.7168 57.3932 60.9387 56.9985C61.1595 56.5798 61.3287 56.3437 61.4464 56.2902C61.8556 55.7906 61.7985 55.3368 61.275 54.9287C61.1038 54.8645 61.0274 54.772 61.0458 54.651C61.0631 54.506 61.1409 54.3703 61.2792 54.2437C61.4414 54.1161 61.6304 54.0472 61.8462 54.0372C62.0804 53.9062 62.2443 53.8145 62.338 53.7621C62.4556 53.7085 62.5122 53.6338 62.5078 53.5379C62.5055 53.49 62.5685 53.2949 62.6968 52.9525C62.8479 52.5851 63.0327 52.1681 63.2513 51.7014C63.4688 51.2108 63.6879 50.7562 63.9087 50.3375C64.1524 49.8937 64.3531 49.56 64.5109 49.3364C64.7434 48.6529 64.9266 48.1999 65.0604 47.9775C65.1931 47.731 65.3024 47.4977 65.3882 47.2775C65.5025 47.152 65.6581 46.8805 65.8549 46.4629C66.0518 46.0453 66.2611 45.6392 66.4831 45.2445C66.8031 44.8932 67.0861 44.5197 67.332 44.1239C67.6007 43.7029 67.8368 43.3556 68.0403 43.0818C68.148 42.8126 68.3024 42.5171 68.5037 42.1954C68.729 41.8726 68.9537 41.5378 69.1778 41.191C69.6099 40.6664 69.955 40.338 70.2132 40.2059C70.4942 40.0487 70.8795 40.0668 71.369 40.2603C71.9315 40.4744 72.3569 40.8391 72.6451 41.3542C72.9333 41.8694 73.1368 42.6288 73.2555 43.6324C73.3531 44.1804 73.454 44.8004 73.5582 45.4923C73.6853 46.1591 73.6967 46.6631 73.5924 47.0043C73.6125 47.4359 73.625 47.9639 73.63 48.5883C73.6589 49.2116 73.7222 49.7973 73.8197 50.3454C73.745 50.8054 73.733 51.3225 73.7837 51.8967C73.8333 52.447 73.8631 52.8301 73.8732 53.0458C73.8832 53.2616 73.8874 53.6098 73.8857 54.0904C73.8829 54.547 73.8892 54.9431 73.9048 55.2788C73.9232 56.1909 73.9343 56.9472 73.9382 57.5477C73.9661 58.147 73.9928 58.7224 74.0184 59.2738C74.0669 59.8001 74.1079 60.4229 74.1413 61.1421C74.2772 63.0338 74.2894 64.3307 74.1779 65.0326C74.0675 65.7585 73.7382 66.1702 73.1902 66.2678ZM65.3052 54.0206C65.3052 54.0206 65.5798 53.9838 66.1289 53.9102C66.701 53.8116 67.3232 53.7586 67.9956 53.7514C68.7834 53.6427 69.4421 53.6001 69.9718 53.6236C70.5003 53.623 70.8114 53.5965 70.9051 53.5441C71.1699 53.5559 71.3447 53.4396 71.4295 53.1954C71.5142 52.9512 71.5477 52.6373 71.5299 52.2538C71.4574 51.7285 71.3886 51.023 71.3234 50.1371C71.2571 49.2272 71.1908 48.3172 71.1245 47.4073C71.081 46.4724 71.0573 45.7046 71.0535 45.1042C71.0323 44.6486 70.9894 44.2422 70.9247 43.8848C70.859 43.5035 70.8261 43.3128 70.8261 43.3128C70.7748 43.2431 70.6234 43.3462 70.3719 43.6222C70.1205 43.8982 69.8364 44.2477 69.5197 44.6709C69.227 45.0929 68.9457 45.5024 68.6758 45.8994C68.4299 46.2952 68.2515 46.5918 68.1405 46.7892C68.0502 46.9135 67.8849 47.2335 67.6446 47.7492C67.4043 48.265 67.1297 48.8183 66.8208 49.4093C65.9994 50.865 65.4862 51.97 65.281 52.7243C65.0758 53.4787 65.0838 53.9108 65.3052 54.0206ZM85.5962 63.601C84.6244 63.8864 83.605 63.9218 82.5379 63.7071C81.4947 63.4913 80.562 63.0661 79.7396 62.4316C78.9173 61.7971 78.328 61.0076 77.9718 60.0631C77.8636 59.8039 77.7686 59.568 77.6866 59.3556C77.6287 59.1421 77.6476 59.0331 77.7435 59.0286C77.9833 59.0175 77.9897 58.897 77.7628 58.6673C77.6864 58.5748 77.6432 58.4206 77.6332 58.2049C77.6471 57.988 77.6856 57.782 77.7486 57.5868C77.8356 57.3906 77.939 57.2897 78.0589 57.2841C78.2267 57.2763 78.4093 57.3279 78.6067 57.4388C78.804 57.5498 78.954 57.675 79.0566 57.8144C79.182 57.9287 79.1985 58.024 79.1059 58.1004C79.1059 58.1004 79.16 58.23 79.2681 58.4893C79.3752 58.7245 79.4125 59.0111 79.3802 59.349C79.6126 59.6986 79.8064 59.9899 79.9614 60.223C80.1152 60.432 80.426 60.6579 80.8938 60.9004C81.2166 61.1257 81.5007 61.2927 81.746 61.4014C81.9913 61.5101 82.4142 61.5625 83.0146 61.5587C83.3982 61.5408 83.7077 61.4784 83.943 61.3714C84.1782 61.2643 84.3862 61.0865 84.5669 60.8378C84.7715 60.5881 85.0082 60.2527 85.2769 59.8318C85.3277 59.3729 85.1978 58.6462 84.8873 57.6515C84.6008 56.6557 84.1866 55.4977 83.6447 54.1775C83.1017 52.8332 82.46 51.4335 81.7197 49.9783C81.5636 49.7213 81.4189 49.4517 81.2857 49.1696C81.1764 48.8863 81.1218 48.7447 81.1218 48.7447C81.1725 48.2859 81.1291 47.8674 80.9914 47.4894C80.842 47.3762 80.7452 47.1044 80.7012 46.674C80.68 46.2185 80.6371 45.812 80.5725 45.4547C80.5959 44.925 80.6249 44.5152 80.6595 44.2253C80.6941 43.9354 80.8343 43.5925 81.0802 43.1967C81.7287 42.1574 82.5408 41.2788 83.5165 40.5607C84.4911 39.8187 85.752 39.2916 87.2991 38.9794C87.5606 38.9192 87.8952 38.8797 88.3027 38.8607C88.7092 38.8178 89.1293 38.8103 89.563 38.8382C89.9957 38.8421 90.3815 38.8722 90.7205 38.9286C91.0823 38.9598 91.3499 39.0315 91.5233 39.1435C92.1121 39.4045 92.5821 39.695 92.9333 40.015C93.2845 40.3351 93.59 40.7053 93.8498 41.1257C93.982 41.3838 94.0634 41.5843 94.094 41.727C94.1475 41.8446 94.1531 41.9645 94.1107 42.0866C94.0683 42.2087 93.9808 42.393 93.8481 42.6394C93.7349 42.7888 93.5389 42.9661 93.2602 43.1712C93.0054 43.3753 92.7026 43.5816 92.3519 43.7901C92.0252 43.9975 91.6739 44.194 91.2981 44.3796C90.9452 44.5402 90.614 44.6517 90.3046 44.7141C90.0933 44.82 89.9636 44.8741 89.9157 44.8763C89.8917 44.8774 89.8775 44.8301 89.8731 44.7342C89.9383 44.587 89.9453 44.4785 89.894 44.4088C89.8667 44.338 89.853 44.3026 89.853 44.3026C89.5413 44.3171 89.4633 44.1886 89.6189 43.9171C89.7984 43.6445 90.1031 43.2219 90.533 42.6493C90.9422 42.1497 91.2029 41.8133 91.315 41.6399C91.4499 41.4414 91.4547 41.285 91.3292 41.1707C91.1809 41.0815 90.8899 41.023 90.4561 40.9951C90.0224 40.9672 89.5543 40.9769 89.052 41.0243C88.5725 41.0466 88.1426 41.1026 87.7624 41.1923C86.5804 41.6076 85.5495 42.1721 84.6696 42.8857C83.8138 43.5982 83.3089 44.3665 83.155 45.1905C83.0039 45.5579 82.935 45.8855 82.9484 46.1732C82.9857 46.4597 83.1148 46.9102 83.3355 47.5246C83.4113 48.1218 83.481 48.587 83.5446 48.9204C83.6321 49.2527 83.6769 49.4429 83.6792 49.4908C83.6836 49.5867 83.7143 49.7294 83.7712 49.919C83.8269 50.0846 83.8773 50.3946 83.9225 50.849C83.9782 51.0146 84.1087 51.2367 84.3138 51.5155C84.5179 51.7703 84.8555 52.055 85.3266 52.3694C85.399 52.8946 85.5041 53.3462 85.6418 53.7243C85.8024 54.0772 85.9024 54.4209 85.942 54.7554C86.466 55.6921 86.8702 56.6344 87.1545 57.5822C87.4628 58.5289 87.6554 59.3128 87.7323 59.9339C87.8092 60.555 87.7638 60.8695 87.596 60.8773C87.572 60.8784 87.5617 60.9149 87.565 60.9868C87.5683 61.0587 87.582 61.0941 87.606 61.093C87.6127 61.2369 87.5371 61.4206 87.3793 61.6441C87.2215 61.8677 87.0289 62.1169 86.8014 62.3918C86.5728 62.6427 86.3431 62.8696 86.1123 63.0725C85.9065 63.2983 85.7345 63.4745 85.5962 63.601Z" fill="#BD3D24"/>
</svg>
