<svg width="284" height="299" viewBox="0 0 284 299" fill="none" xmlns="http://www.w3.org/2000/svg">
<path d="M0 262.914V226.828H68.5517V299H0V262.914ZM58.7586 262.914V237.138H9.7931V288.69H58.7586V262.914ZM19.5862 262.914V247.448H48.9655V278.379H19.5862V262.914ZM88.1379 293.845V288.69H78.3448V268.069H88.1379V237.138H97.931V226.828H78.3448V216.517H39.1724V206.207H48.9655V195.897H29.3793V216.517H19.5862V206.207H0V195.897H19.5862V175.276H9.7931V185.586H0V164.966H19.5862V175.276H29.3793V185.586H39.1724V175.276H48.9655V185.586H68.5517V175.276H58.7586V164.966H29.3793V154.655H58.7586V144.345H29.3793V134.034H19.5862V144.345H0V113.414H9.7931V123.724H68.5517V113.414H58.7586V103.103H39.1724V113.414H29.3793V103.103H9.7931V82.4828H29.3793V103.103H39.1724V92.7931H58.7586V82.4828H68.5517V92.7931H58.7586V103.103H68.5517V113.414H78.3448V92.7931H88.1379V82.4828H78.3448V51.5517H97.931V61.8621H107.724V72.1724H97.931V82.4828H107.724V144.345H88.1379V134.034H78.3448V144.345H68.5517V154.655H58.7586V164.966H68.5517V175.276H78.3448V185.586H97.931V175.276H88.1379V164.966H78.3448V154.655H97.931V175.276H107.724V154.655H117.517V175.276H127.31V144.345H137.103V134.034H146.897V144.345H137.103V154.655H146.897V164.966H176.276V154.655H166.483V144.345H156.69V123.724H146.897V113.414H156.69V103.103H166.483V92.7931H156.69V82.4828H146.897V103.103H137.103V92.7931H127.31V103.103H117.517V92.7931H127.31V82.4828H117.517V51.5517H107.724V41.2414H117.517V51.5517H127.31V10.3103H137.103V30.931H156.69V20.6207H146.897V0H166.483V10.3103H156.69V20.6207H176.276V10.3103H186.069V0H205.655V30.931H186.069V20.6207H176.276V41.2414H186.069V72.1724H195.862V61.8621H205.655V113.414H225.241V103.103H215.448V82.4828H235.034V113.414H254.621V103.103H244.828V82.4828H254.621V103.103H264.414V92.7931H284V113.414H274.207V103.103H264.414V113.414H254.621V144.345H264.414V154.655H254.621V164.966H235.034V175.276H225.241V185.586H205.655V175.276H195.862V164.966H186.069V185.586H195.862V195.897H225.241V206.207H244.828V195.897H235.034V185.586H244.828V175.276H254.621V185.586H264.414V195.897H274.207V175.276H264.414V164.966H284V195.897H274.207V216.517H284V237.138H274.207V268.069H284V278.379H254.621V299H225.241V288.69H244.828V278.379H225.241V257.759H215.448V278.379H205.655V288.69H215.448V299H195.862V268.069H186.069V288.69H176.276V278.379H166.483V237.138H176.276V268.069H186.069V237.138H195.862V216.517H186.069V206.207H176.276V195.897H186.069V185.586H176.276V175.276H166.483V216.517H176.276V226.828H156.69V247.448H146.897V268.069H156.69V278.379H146.897V288.69H166.483V299H146.897V288.69H137.103V278.379H127.31V299H88.1379V293.845ZM117.517 278.379V268.069H127.31V237.138H107.724V247.448H117.517V257.759H97.931V268.069H88.1379V278.379H97.931V288.69H117.517V278.379ZM254.621 268.069V257.759H264.414V237.138H274.207V226.828H264.414V195.897H254.621V226.828H264.414V237.138H254.621V247.448H244.828V278.379H254.621V268.069ZM205.655 262.914V257.759H195.862V268.069H205.655V262.914ZM146.897 242.293V237.138H137.103V247.448H146.897V242.293ZM235.034 231.983V216.517H205.655V247.448H235.034V231.983ZM215.448 231.983V226.828H225.241V237.138H215.448V231.983ZM137.103 221.672V216.517H156.69V206.207H137.103V195.897H127.31V206.207H137.103V216.517H117.517V206.207H107.724V216.517H97.931V206.207H88.1379V195.897H78.3448V185.586H68.5517V195.897H58.7586V206.207H68.5517V195.897H78.3448V206.207H88.1379V216.517H97.931V226.828H137.103V221.672ZM107.724 190.741V185.586H97.931V195.897H107.724V190.741ZM156.69 185.586V175.276H137.103V185.586H146.897V195.897H156.69V185.586ZM215.448 170.121V164.966H205.655V175.276H215.448V170.121ZM235.034 159.81V154.655H244.828V123.724H235.034V134.034H225.241V144.345H215.448V134.034H195.862V123.724H186.069V113.414H195.862V82.4828H186.069V72.1724H176.276V61.8621H166.483V72.1724H156.69V41.2414H166.483V51.5517H176.276V41.2414H166.483V30.931H156.69V41.2414H146.897V72.1724H156.69V82.4828H166.483V72.1724H176.276V103.103H166.483V113.414H156.69V123.724H166.483V144.345H176.276V134.034H195.862V144.345H205.655V154.655H225.241V164.966H235.034V159.81ZM225.241 149.5V144.345H235.034V154.655H225.241V149.5ZM68.5517 139.19V134.034H78.3448V123.724H68.5517V134.034H58.7586V144.345H68.5517V139.19ZM97.931 118.569V113.414H88.1379V123.724H97.931V118.569ZM97.931 67.0172V61.8621H88.1379V72.1724H97.931V67.0172ZM137.103 61.8621V51.5517H127.31V72.1724H137.103V61.8621ZM195.862 15.4655V10.3103H186.069V20.6207H195.862V15.4655ZM274.207 293.845V288.69H284V299H274.207V293.845ZM274.207 144.345V134.034H264.414V123.724H274.207V134.034H284V154.655H274.207V144.345ZM0 36.0862V0H68.5517V72.1724H0V36.0862ZM58.7586 36.0862V10.3103H9.7931V61.8621H58.7586V36.0862ZM19.5862 36.0862V20.6207H48.9655V51.5517H19.5862V36.0862ZM215.448 36.0862V0H284V72.1724H215.448V36.0862ZM274.207 36.0862V10.3103H225.241V61.8621H274.207V36.0862ZM235.034 36.0862V20.6207H264.414V51.5517H235.034V36.0862ZM78.3448 36.0862V30.931H88.1379V41.2414H78.3448V36.0862ZM97.931 25.7759V20.6207H88.1379V0H97.931V10.3103H107.724V0H117.517V10.3103H107.724V30.931H97.931V25.7759Z" fill="black"/>
</svg>
